<?xml version="1.0" encoding="UTF-8" standalone="no"?>
<!DOCTYPE svg PUBLIC "-//W3C//DTD SVG 1.1//EN" "http://www.w3.org/Graphics/SVG/1.1/DTD/svg11.dtd">
<svg width="100%" height="100%" viewBox="0 0 32 32" version="1.1" xmlns="http://www.w3.org/2000/svg" xmlns:xlink="http://www.w3.org/1999/xlink" xml:space="preserve" xmlns:serif="http://www.serif.com/" style="fill-rule:evenodd;clip-rule:evenodd;stroke-linejoin:round;stroke-miterlimit:2;">
    <g transform="matrix(0.0537532,0,0,0.055742,-2.07579,-1.73613)">
        <path d="M348,31.61C348,31.946 349.417,34.879 351.149,38.128C354.865,45.099 363.977,55.33 371.869,61.39C376.801,65.178 378.803,65.988 388,67.914C393.775,69.124 399.4,70.377 400.5,70.698C401.691,71.045 399.645,68.272 395.446,63.844C391.566,59.753 386.741,53.689 384.724,50.368C381.23,44.616 380.795,44.272 375.526,43.093C372.484,42.412 365.188,39.413 359.313,36.428C347.945,30.652 348,30.675 348,31.61M382,32.795C382,33.232 383.913,37.396 386.25,42.05C394.588,58.649 407.712,72.495 418.965,76.565C422.52,77.851 425.556,78.778 425.71,78.624C425.863,78.47 423.553,74.641 420.575,70.114C417.597,65.588 413.937,58.528 412.441,54.426C410.183,48.237 409.276,46.861 407.11,46.341C402.61,45.26 394.723,40.969 388.834,36.398C383.092,31.941 382,31.365 382,32.795M413.608,37.199C416.191,51.952 421.727,65.121 429.941,76.053C434.436,82.037 435.604,82.927 443.376,86.303C448.058,88.336 452.061,90 452.271,90C452.481,90 451.626,86.963 450.371,83.25C449.116,79.537 447.793,73.53 447.43,69.9L446.771,63.301L437.868,57.017C432.972,53.561 425.38,46.946 420.998,42.316C413.473,34.367 413.062,34.082 413.608,37.199M311.672,36.25C319.333,46.698 326.785,53.21 338.07,59.323C343.747,62.397 345.671,62.884 354.5,63.481C360,63.853 365.533,64.401 366.796,64.699C368.36,65.067 365.781,61.904 358.712,54.784L348.332,44.328L340.416,43.085C336.062,42.401 327.85,40.302 322.167,38.421C310.488,34.554 310.418,34.54 311.672,36.25M276,40.839C276,43.434 294.12,56.269 305.064,61.427L312.5,64.931L323.697,64.319L334.894,63.706L329.228,60.294C321.662,55.738 315.436,50.547 313.396,47.094C311.789,44.373 311.349,44.242 301.613,43.601C292.188,42.98 281.829,41.582 277.75,40.381C276.788,40.097 276,40.304 276,40.839M452.4,45.162C451.161,47.167 451.529,69.24 452.898,75C453.617,78.025 455.557,83.498 457.21,87.162C460.03,93.415 460.56,93.976 465.857,96.321C471.411,98.779 487.188,104 489.063,104C489.591,104 488.28,100.513 486.15,96.25C484.02,91.987 481.729,86.808 481.058,84.741C480.269,82.309 476.941,78.072 471.629,72.741C465.198,66.285 462.508,62.651 459.21,55.963C456.894,51.267 455,46.655 455,45.713C455,43.757 453.469,43.433 452.4,45.162M487.81,53.75C486.291,57.155 485.56,61.262 485.229,68.254C484.827,76.744 485.101,79.078 487.346,86.254C488.765,90.789 491.405,96.968 493.213,99.983L496.5,105.467L508,109.566C520.618,114.064 526.796,116.951 531.75,120.665C535.507,123.482 535.701,122.858 533.118,116.287C532.083,113.654 530.68,108.812 530.001,105.527C529.054,100.948 527.821,98.495 524.718,95.019L520.67,90.484L517.912,93.242C512.591,98.563 505,95.749 505,88.455C505,84.828 508.489,80.048 511.205,79.956C511.917,79.931 510.902,79.067 508.95,78.034C500.935,73.797 493.657,63.075 492.357,53.591C492.011,51.066 491.323,49 490.829,49C490.334,49 488.975,51.138 487.81,53.75M245.799,51.132C244.439,51.962 255.549,59.468 263.421,63.037C276.473,68.955 281.825,69.589 300.167,67.394L304.834,66.835L297.157,62.899C292.935,60.734 287.01,57.076 283.99,54.77L278.5,50.577L262.667,50.539C253.959,50.517 246.368,50.785 245.799,51.132M241.5,60.149C239.85,60.687 233.365,62.205 227.09,63.524C220.814,64.842 215.276,66.324 214.783,66.817C213.595,68.005 228.845,74.523 237.656,76.594C242.114,77.641 246.657,78.008 250.686,77.645C257.818,77.002 272.451,72.994 271.286,72.003C270.853,71.635 267.8,70.337 264.5,69.118C261.2,67.899 255.496,65.124 251.825,62.951C248.154,60.778 245.004,59.039 244.825,59.086C244.646,59.133 243.15,59.612 241.5,60.149M351.413,69.859C351.814,70.508 358.641,75.314 366.584,80.539C381.023,90.036 381.027,90.037 384.017,88.491L387.007,86.945L383.667,84.013C379.462,80.32 374.626,73.415 375.385,72.186C376.085,71.054 371.39,70.206 359.591,69.336C352.862,68.839 350.861,68.967 351.413,69.859M537.136,71.336C535.145,73.735 533.147,80.736 532.47,87.686C531.757,95.005 532.787,102.558 536.242,115.336C538.345,123.112 538.375,123.155 540.086,120.886C542.493,117.695 548.536,117.708 551.129,120.911C553.542,123.891 553.501,126.499 551,129C548.642,131.358 545.263,131.573 542.372,129.548L540.298,128.095L542.193,131.925C543.922,135.421 544.531,135.813 549.183,136.43C551.986,136.802 555.979,137.692 558.056,138.407L561.834,139.709L563.949,134.104C565.112,131.022 568.102,125.493 570.593,121.817L575.122,115.133L573.16,108.781C572.08,105.287 570.909,99.745 570.557,96.464C569.294,84.71 569.026,83.733 567.431,85.057C564.778,87.259 562.817,96.712 562.75,107.622C562.697,116.255 562.435,117.997 561.261,117.547C560.477,117.246 559.425,117 558.921,117C556.946,117 549.718,109.377 547.45,104.902C544.037,98.166 541.043,86.761 540.323,77.75C539.699,69.946 539.171,68.884 537.136,71.336M321.582,71.867C320.98,72.841 331.376,76.485 337.5,77.447C341.385,78.056 341.314,77.975 335,74.586C328.782,71.249 322.723,70.021 321.582,71.867M199.719,78.279C183.924,84.11 183.826,84.391 196.075,88.677C210.928,93.875 225.848,92.903 241.444,85.722L248.388,82.525L239.444,81.275C230.486,80.022 220.228,76.93 216.527,74.367C215.443,73.615 214.318,73.043 214.027,73.095C213.737,73.148 207.299,75.48 199.719,78.279M383,73.776C383,74.937 389.093,80.58 399.829,89.362C406.442,94.771 407.273,95.171 410.589,94.549L414.182,93.875L409.091,88.994C404.052,84.163 402.374,79.709 405.233,78.756C405.911,78.53 402.703,77.33 398.105,76.089C387.079,73.114 383,72.489 383,73.776M279.028,76.962C277.22,78.105 277.69,78.312 287,80.466C297.555,82.909 299.279,82.172 290.5,78.971C281.596,75.725 281.117,75.641 279.028,76.962M158,80.638C148.416,85.969 143,89.908 143,91.548C143,92.347 143.417,93 143.926,93C144.435,93 142.197,95.532 138.952,98.628C131.175,106.045 128,112.426 128,120.637C128,124.072 128.412,127.136 128.915,127.447C129.418,127.758 130.846,126.367 132.089,124.356C133.852,121.504 134.366,119.136 134.425,113.599C134.51,105.551 136.111,102.456 143.019,96.985L147,93.832L147,100.466C147,108.271 145.484,111.726 140.589,115.078C138.547,116.476 136.798,118.652 136.452,120.224C136.122,121.722 133.793,125.239 131.275,128.039C125.761,134.172 125.033,133.586 125.025,123C125.018,113.486 127.775,107.184 135.477,99.109C141.682,92.604 142.855,89.259 138.25,91.205C132.274,93.729 119.208,103.101 113.933,108.647C107.979,114.907 102.489,123.534 99.534,131.272C98.531,133.897 97.505,135.838 97.253,135.586C96.287,134.621 101.266,121.933 105.114,115.553C108.347,110.193 108.906,108.592 107.948,107.438C105.297,104.243 102.278,105.871 91.233,116.455L80.322,126.91L77.554,135.601C76.031,140.381 73.503,147.151 71.935,150.646C70.367,154.141 69.247,157 69.447,157C69.647,157 71.898,153.438 74.45,149.085C79.025,141.282 82,137.637 82,139.835C82,140.428 80.462,146.896 78.583,154.207C73.407,174.342 70.379,180.343 63.174,184.745C57.133,188.436 49.556,187.064 45.168,181.486L43,178.73L43,181.187C43,189.326 50.473,200.101 59.377,204.797C64.011,207.242 65.512,207.5 75.101,207.5C85.252,207.5 85.99,207.352 92.512,204C102.889,198.667 104.922,195.522 106.552,182.278C108.68,164.986 112.683,155.349 121.303,146.76C124.206,143.867 129.038,140.155 132.041,138.512C137.012,135.791 138.35,135.523 147,135.512C154.94,135.502 157.097,135.853 160.137,137.65L163.774,139.799L163.246,129.454C162.664,118.043 163.998,108.884 167.14,102.726C169.525,98.051 171.443,97.186 174.098,99.589C175.833,101.159 176.254,101.212 177.046,99.96C177.554,99.157 177.976,98.178 177.985,97.785C177.993,97.391 179.368,95.512 181.04,93.608L184.079,90.146L180.506,86.573C176.27,82.336 173.85,82.115 169.344,85.551C165.536,88.456 165.129,87.835 168,83.5C172.851,76.175 168.344,74.885 158,80.638M413,82.704C413,83.641 418.308,89.716 424.796,96.204C434.041,105.449 437.177,108 439.296,108C440.783,108 442,107.729 442,107.397C442,107.065 439.916,104.478 437.368,101.647C431.5,95.127 428.998,90.237 430.922,89.048C432.572,88.028 430.722,86.935 421.417,83.432C413.737,80.542 413,80.478 413,82.704M249.034,86.958C247.183,88.128 250.18,89.377 258.551,90.925C268.362,92.738 268.895,92.058 260.09,88.96C250.622,85.628 251.023,85.7 249.034,86.958M341.5,89.729C336.414,91.745 322.56,91.957 314.394,90.144L308.289,88.788L302.496,92.634L296.704,96.48L286.666,96.341C277.334,96.213 276.503,96.363 274.841,98.475C272.221,101.806 267.592,103.67 257.228,105.566C249.781,106.928 248,107.589 248,108.991C248,113.491 235.548,120.062 224.158,121.573C219.766,122.156 219.141,122.544 218.652,124.991C218.069,127.903 213.524,133.152 208.502,136.712C206.853,137.881 205.828,139.162 206.225,139.559C207.451,140.784 217.831,132.193 220.23,127.968C222.02,124.817 223.347,123.763 226.5,122.989C239.755,119.736 244.439,117.699 249.433,113.016C253.858,108.868 255.463,108.055 262.102,106.598C266.885,105.548 271.707,103.653 275.102,101.49C280.151,98.273 281.049,98.049 289,98.025C296.351,98.002 298.364,97.59 303.891,94.975L310.282,91.952L320.391,93.115C329.657,94.182 331.208,94.102 339,92.161L347.5,90.043L358.873,92.944C367.894,95.245 370.737,95.621 372.623,94.762C373.93,94.166 375,93.377 375,93.007C375,92.426 359.139,89.707 348.898,88.532C347.029,88.318 343.7,88.856 341.5,89.729M386.926,91.34C382.083,93.333 373.615,98.949 374.349,99.682C374.489,99.823 377.281,98.837 380.552,97.493C383.823,96.148 388.404,95.037 390.731,95.024C394.399,95.003 395.044,95.327 395.578,97.456C396.115,99.592 396.604,99.834 399.347,99.318C402.75,98.678 406.237,97.08 404.34,97.03C403.702,97.014 400.902,95.2 398.119,93C395.336,90.8 392.933,89.011 392.779,89.024C392.626,89.037 389.992,90.079 386.926,91.34M440,92.033C440,94.246 445.19,103.128 450.946,110.768C457.404,119.338 462.181,124.008 467.084,126.543C469.952,128.027 469.804,127.673 464.682,120.812C455.726,108.815 453.111,102.156 456.592,100.209C457.829,99.516 456.405,98.393 450.189,95.159C441.921,90.858 440,90.268 440,92.033M181.924,98.585L179.5,101.17L181.957,103.163C184.266,105.036 184.489,105.052 185.675,103.43C186.837,101.841 187.007,101.894 187.825,104.102C189.729,109.245 189.993,109.334 189.622,104.709C189.279,100.444 186.931,96 185.019,96C184.65,96 183.258,97.163 181.924,98.585M408.792,100.503C405.066,101.873 394.818,108.151 395.385,108.718C395.552,108.885 397.559,108.361 399.846,107.554C412.142,103.216 420.946,103.573 424.876,108.569C426.429,110.543 427.364,110.877 429.911,110.368L433.04,109.742L427.27,104.416C422.061,99.608 421.063,99.093 417,99.116C414.525,99.13 410.832,99.754 408.792,100.503M141.403,103.202C137.411,106.268 137.033,106.961 137.015,111.25C136.997,115.622 137.805,115.901 140.911,112.595C142.93,110.445 145.659,102.325 144.687,101.354C144.477,101.144 142.999,101.975 141.403,103.202M462.01,104.25C462.03,108.868 474.504,131 477.087,131C477.764,131 477.931,130.301 477.504,129.25C474.875,122.767 472.885,115.871 472.364,111.441C471.788,106.537 471.539,106.175 467.352,104.14C461.925,101.504 461.998,101.502 462.01,104.25M216.738,103.692C212.581,104.776 216.748,105.992 224.309,105.902L232.5,105.804L226,104.464C218.912,103.002 219.268,103.032 216.738,103.692M591.94,104.971C583.46,109.454 571.952,122.885 567.605,133.372C565.361,138.785 565.467,139 570.365,139C575.937,139 579.596,141.784 581.032,147.119C583.329,155.648 577.716,163 568.909,163C564.723,163 563.426,162.501 560.393,159.721C555.96,155.659 555.392,150.666 558.832,146.013L561.06,143L556.645,143C548.304,143 542.108,145.832 534.848,152.965C528.97,158.739 528.05,160.166 526.946,165.217C523.964,178.864 532.48,194.182 543.902,195.714L548.13,196.281L545.565,192.501C538.347,181.864 547.146,168.716 559.247,172.058C567.146,174.239 570.737,182.829 567.224,191.143L565.172,196L568.964,196C573.88,196 575.413,197.884 574.717,203.07C574.181,207.071 574.208,207.113 576.963,206.508C578.856,206.092 580.274,206.417 581.376,207.519C583.325,209.468 583.332,209.795 581.5,213C579.476,216.541 579.634,217 582.878,217C587.78,217 588.618,219.27 585.61,224.402L583.008,228.843L586.254,229.543C600.908,232.706 606.709,246.224 597.405,255.528C595.064,257.869 594.336,259.184 595.203,259.502C595.916,259.763 598.275,260.581 600.444,261.319C602.613,262.058 604.553,263.16 604.756,263.769C605.393,265.679 601.141,269 598.059,269C592.061,269 593.552,271.919 600.622,274.017C603.803,274.961 605.554,274.972 608.292,274.069C613.638,272.304 614.444,270.748 614.205,262.647C614.03,256.725 614.341,255.09 616.022,253.108C618.98,249.619 619.693,251.371 617.652,257.117C615.53,263.091 616.168,268.594 618.845,267.407C619.755,267.003 621.468,266.634 622.65,266.586C624.689,266.504 624.82,265.934 625.195,255.5C625.617,243.742 627.331,238.578 632.543,233.366C635.156,230.753 634.11,230.368 629.124,232.107C627.193,232.78 624.686,235.032 622.725,237.857L619.5,242.5L619.183,239.197C618.986,237.147 619.668,234.533 620.981,232.308L623.096,228.723L619.637,229.284C616.529,229.788 616.056,229.549 614.97,226.927C613.673,223.796 614.061,207.113 615.515,203.5C616.225,201.736 616.007,201.785 613.66,203.924C610.462,206.839 610.375,206.148 613.053,199.1L615.106,193.701L612.553,195.373C609.575,197.325 609.504,197.122 611.5,192.346C613.169,188.351 613.436,186.65 612.013,189.084C611.503,189.955 609.368,191.859 607.267,193.315C603.626,195.838 603.154,195.914 597.104,194.939C584.577,192.922 578.755,187.776 578.675,178.649C578.624,172.779 582.221,164.435 584.288,165.629C588.988,168.341 591.499,170.873 593.118,174.533C594.745,178.212 594.838,179.472 593.849,184.399C593.225,187.506 592.891,190.22 593.107,190.43C593.323,190.641 595.638,191.131 598.25,191.52C602.25,192.115 603,191.972 603,190.61C603,189.72 603.9,187.314 605,185.261C606.1,183.209 607.02,179.723 607.045,177.515C607.07,175.307 607.665,172.152 608.367,170.505C609.479,167.897 609.393,167.085 607.696,164.209C604.643,159.034 605.635,147.243 609.766,139.617C612.6,134.384 613.079,131 610.986,131C609.568,131 600.755,141.395 599.356,144.718C598.61,146.488 598,149.439 598,151.277C598,153.114 597.374,155.473 596.61,156.519C595.411,158.158 594.855,158.255 592.581,157.219C588,155.132 587.934,151.323 592.367,144.791C594.744,141.288 594.76,141.121 593.3,134.864C591.353,126.517 591.919,110.81 594.332,106.25C595.278,104.463 595.927,103.02 595.776,103.044C595.624,103.069 593.898,103.935 591.94,104.971M477.183,114.005C478.571,121.641 481.347,128.093 487.115,137.085C489.908,141.438 492.382,145 492.613,145C492.844,145 491.901,142.765 490.517,140.033C485.741,130.608 488.063,132.393 498.984,146.539C507.933,158.132 511.122,161.042 514.04,160.279C515.821,159.813 515.597,159.414 512.119,156.856C504.652,151.365 493.527,134.553 490.5,124.187C489.876,122.049 489.983,121.972 491.913,123.177C493.061,123.894 494,124.935 494.001,125.491C494.005,130.34 506.548,148.74 513.192,153.642C516.712,156.239 517.611,156.222 527.877,153.366L533.255,151.87L532.778,144.435C532.329,137.451 532.425,137 534.35,137C537.328,137 535.75,135.846 525,130.164C513.54,124.107 505.619,121.365 495.274,119.876C484.271,118.291 483.302,116.585 493.839,117.347C505.669,118.204 513.966,120.471 525.904,126.11C531.627,128.813 536.526,130.807 536.792,130.542C537.981,129.352 530.073,123.712 520.72,119.079C508.726,113.138 498.335,110.275 485.499,109.373L476.222,108.72L477.183,114.005M165.596,116.204C164.909,121.827 165.132,124.083 166.979,130.204C171.095,143.837 177.361,153.049 183.584,154.61C187.847,155.68 193.187,154.013 196.679,150.521C198.505,148.695 200,146.45 200,145.533C200,144.254 199.01,144.666 195.75,147.301C188.671,153.022 187.412,153.418 183.662,151.1C179.372,148.449 174.451,142.222 170.677,134.669C168.149,129.61 167.517,126.908 167.018,119.027L166.415,109.5L165.596,116.204M157.206,116.468C160.113,117.057 160.282,117.556 161.526,129.218L162.136,134.936L158.546,131.346C155.135,127.935 154.685,127.778 149.504,128.208C145.258,128.56 142.386,129.678 136.526,133.259C132.387,135.788 129,137.712 129,137.535C129,137.357 132.36,134.638 136.467,131.493C142.011,127.247 144.587,124.464 146.467,120.69C147.86,117.895 149,115.042 149,114.35C149,113.379 149.625,113.414 151.75,114.507C153.262,115.284 155.718,116.167 157.206,116.468M431.265,114.542C424.645,116.324 417.503,119.977 413,123.883L409.5,126.919L417.685,126.959C426.002,127.001 438.459,129.105 442.182,131.097C443.799,131.963 444.139,131.91 443.792,130.847C443.033,128.518 435.42,124.984 429.341,124.139C423.698,123.354 423.595,123.287 426.315,122.163C431.289,120.108 443.803,120.779 449.951,123.432C457.863,126.845 458.762,125.717 452.953,119.661C450.23,116.823 448.002,114.162 448.001,113.75C447.999,112.507 436.864,113.034 431.265,114.542M184.15,121.173C184.067,122.093 182.615,124.231 180.923,125.923C178.649,128.197 176.925,129 174.316,129C171.508,129 170.91,129.323 171.393,130.582C171.727,131.452 172,132.577 172,133.082C172,134.68 176.375,134.069 179.775,131.996C183.408,129.781 185.304,125.953 184.698,122.059C184.479,120.651 184.232,120.253 184.15,121.173M509.5,129.026L513.5,130.846L508.75,130.287C505.523,129.907 504,130.095 504,130.873C504,132.327 520.746,144.837 523.748,145.625C529.443,147.121 530.797,142.643 526.077,137.923C522.703,134.549 523.494,134.027 527.365,137.073C529.623,138.848 530,139.908 530,144.475C530,149.554 529.852,149.856 526.851,150.902C525.119,151.506 522.043,152 520.015,152C516.772,152 515.54,151.184 509.78,145.217C503.087,138.285 497,129.711 497,127.216C497,125.428 503.738,126.404 509.5,129.026M110.015,138.519C110.692,139.333 111.902,140 112.706,140C115.193,140 113.534,142.392 109.422,144.734C104.08,147.776 98.611,147.702 95.455,144.545C91.745,140.836 92.232,139 96.927,139C101.335,139 103.96,136.529 106.22,130.253L107.5,126.7L108.143,131.869C108.497,134.711 109.339,137.704 110.015,138.519M185.78,139.07L180.061,144.873L183.107,147.437C186.402,150.209 187.68,150.499 190,149C191.282,148.172 191.245,148.028 189.748,148.015C188.123,148.001 188.141,147.73 189.998,144.265C191.099,142.21 192,139.259 192,137.706C192,135.862 192.392,135.124 193.13,135.58C193.803,135.996 194.081,135.743 193.817,134.952C192.996,132.489 191.52,133.245 185.78,139.07M454.547,134.111C451.273,134.588 446.998,135.488 445.047,136.11C439.778,137.79 430.459,142.883 428.15,145.343L426.126,147.5L438.313,147.565C445.016,147.601 452.484,148.2 454.908,148.896C459.797,150.3 465,154.839 465,157.7C465,159.237 465.64,159.493 468.75,159.204C472.97,158.811 477,161.642 477,165C477,169.216 469.623,172.916 460.884,173.084L456.5,173.169L460.753,175.123C465.353,177.238 476.259,178.909 480.957,178.22C482.919,177.932 484.713,176.579 486.442,174.083C487.856,172.044 491.69,168.642 494.962,166.524L500.913,162.674L496.102,156.587C493.456,153.239 489.142,147.249 486.516,143.276C483.89,139.303 481.012,135.826 480.121,135.548C477.673,134.787 464.778,133.025 462.5,133.142C461.4,133.198 457.821,133.634 454.547,134.111M165.428,136.5C165.799,138.15 167.728,142.161 169.714,145.414C172.215,149.51 173.465,152.891 173.78,156.414C174.154,160.597 174.001,161.278 172.917,160.25C172.193,159.563 170.591,159 169.357,159C164.004,159 161.993,169.083 166.455,173.545C168.774,175.865 173.797,177.099 172.523,175.036C171.582,173.514 175.507,170.233 179.685,169.049C181.783,168.454 188.225,167.489 194,166.905C207.584,165.531 209,164.638 209,157.437C209,151.142 206.779,146.015 202.143,141.612L199.103,138.724L200.199,142.298C202.333,149.251 195.805,157.817 187.671,158.734C183.401,159.215 182.912,158.998 178.074,154.472C174.735,151.349 171.557,146.908 168.865,141.602C166.603,137.146 165.057,134.85 165.428,136.5M141.618,141.053C135.207,142.656 126.303,147.969 121.597,153C105.116,170.619 104.937,200.718 121.197,220.216C125.237,225.061 134.638,231.826 143.534,236.289C158.876,243.987 165.271,258.886 158.823,271.913C155.896,277.828 158.13,276.592 161.257,270.567C163.816,265.634 164.198,255.02 162.087,247.5C159.654,238.835 156.474,233.8 146.707,223.156C141.487,217.467 136.057,210.683 134.641,208.081C131.304,201.951 129,192.986 129,186.135C129,180.94 128.917,180.765 127.186,182.331C124.573,184.696 123,182.668 123,176.934C123,170.448 128.655,159.354 134.651,154.076C144.843,145.105 160.347,143.306 167.746,150.237C170.864,153.158 171.676,151.759 169.025,148.035C164.51,141.695 151.901,138.483 141.618,141.053M97.532,151.578C103.302,153.989 105.645,153.472 114.906,147.749C118.127,145.758 117.971,146.088 112.628,152.556C107.369,158.922 105.475,162.219 98.963,176.346C97.222,180.122 88.985,191.26 89.004,189.811C89.006,189.64 90.131,187.286 91.504,184.581C94.778,178.127 94.714,175.198 91.425,181C87.338,188.211 79.272,195.755 73.233,198.014C62.291,202.108 54.907,199.437 46.95,188.509C46.152,187.413 47.702,188.427 50.394,190.762C58.729,197.99 66.217,198.743 73.125,193.048C81.166,186.42 89.893,162.703 90.044,147.066L90.088,142.5L92.108,146.328C93.386,148.75 95.378,150.678 97.532,151.578M472.365,146.39C475.505,147.926 478.777,150.257 479.637,151.569C481.569,154.518 483.121,161 481.895,161C481.403,161 481,160.351 481,159.557C481,157.548 477.06,154.993 474.027,155.035C472.637,155.055 470.382,155.69 469.016,156.446C466.627,157.768 466.451,157.662 464.449,153.686C461.997,148.815 456.379,145.529 448,144.063C443.273,143.236 444.199,143.135 454.578,143.349C465.493,143.573 467.206,143.866 472.365,146.39M148.249,153.563C136.772,159.283 131.326,176.123 135.109,194.201C137.726,206.712 148.457,219.782 159.503,223.915C168.038,227.109 173.928,226.377 180.807,221.267C184.024,218.878 189.97,208.636 188.812,207.479C188.494,207.161 186.544,208.048 184.478,209.451C178.039,213.82 166.452,212.512 160.131,206.702C157.264,204.066 153.059,195.495 152.92,192C152.83,189.772 152.718,189.851 151.887,192.727C151.374,194.502 149.981,196.475 148.792,197.112C145.39,198.932 142.475,194.743 140.982,185.891C138.823,173.096 141.163,164.699 148.811,157.789C153.402,153.642 158.473,152.422 165.012,153.891C170.739,155.178 171.141,154.674 166.021,152.625C160.122,150.265 154.245,150.575 148.249,153.563M157.401,157.897C153.3,160.398 150.712,166.844 150.735,174.5C150.757,181.474 152.502,186.225 156.874,191.204C163.19,198.398 172.649,198.128 186.928,190.345C194.365,186.292 197.029,186.693 199.6,192.251L201.103,195.5L200.543,190.5C199.364,179.991 194.959,172 190.346,172C189.585,172 186.432,173.35 183.34,175C176.042,178.895 169.056,179.146 165.551,175.641L163.192,173.283L162.117,175.641C160.897,178.32 157.519,178.796 156.607,176.418C154.273,170.335 159.157,158.031 163.924,157.985C164.791,157.976 166.175,157.533 167,157C169.968,155.082 160.578,155.96 157.401,157.897M506.665,164.547C501.803,166.331 494.297,171.822 489.572,177.052C486.03,180.973 484.71,183.412 482.952,189.29L482.117,192.079L485.178,189.503C489.521,185.85 492.681,184.397 499.223,183.049C506.722,181.503 513.644,182.553 516.805,185.714C520.391,189.3 519.582,196.736 514.719,204.901C512.72,208.255 511.314,211 511.592,211C511.871,211 513.314,210.388 514.8,209.64C519.391,207.327 529.461,206.801 534.044,208.634C538.553,210.439 540,212.454 540,216.934C540,219.885 539.841,219.997 535.75,219.93C530.999,219.851 525.612,218.201 529.679,218.07C531.841,218.001 535,215.608 535,214.039C535,212.187 531.301,209.048 528.5,208.522C525.761,208.008 525.691,208.058 527.692,209.106C528.897,209.737 530.142,210.929 530.459,211.754C531.097,213.415 529.385,215.991 527.628,216.015C527.007,216.024 525.905,216.408 525.179,216.868C524.175,217.505 525.019,219.241 528.699,224.103C537.676,235.965 541.339,248.491 539.032,259.437C537.616,266.154 533.712,271 529.716,271C528.376,271 525.641,269.889 523.64,268.53C520.582,266.456 520,266.325 520,267.714C520,268.624 520.927,271.284 522.06,273.624C524.889,279.468 530.398,282.126 538.933,281.764C544.457,281.53 545.395,281.772 547.087,283.861C548.139,285.159 549,287.296 549,288.61C549,290.885 549.186,290.818 552.932,287.182C555.095,285.083 559.414,281.998 562.529,280.326L568.193,277.287L564.258,276.657C558.831,275.789 555,272.054 555,267.63C555,262.734 555.781,261.221 559.672,258.577L563.093,256.252L559.556,254.165C554.513,251.19 552.008,246.587 552.004,240.285C552.001,235.909 552.485,234.518 555.011,231.64L558.022,228.211L554.366,226.053L550.709,223.896L553.854,220.65C555.584,218.865 557,217.161 557,216.862C557,216.564 555.2,215.726 553,215C550.8,214.274 549,213.388 549,213.032C549,212.675 550.789,211.06 552.976,209.442C557.608,206.015 557.818,205.422 554.677,204.634C553.399,204.313 550.679,202.914 548.632,201.525C546.586,200.136 544.144,198.996 543.206,198.99C542.268,198.985 539.233,197.925 536.462,196.634C526.736,192.105 517.571,178.36 517.571,168.302L517.571,163L514.036,163.07C512.091,163.109 508.774,163.774 506.665,164.547M585.044,174.447C584.286,175.36 583.667,178.135 583.667,180.614C583.667,184.151 584.234,185.689 586.303,187.758C587.753,189.208 589.206,190.128 589.531,189.802C589.857,189.477 590.374,186.776 590.681,183.8C591.169,179.073 590.936,178.037 588.83,175.589C586.625,173.026 586.304,172.929 585.044,174.447M554.75,174.662C556.612,175.414 556.281,176.877 553.5,180.182C552.125,181.816 551,183.669 551,184.299C551,184.929 551.701,184.445 552.557,183.223C555.354,179.229 562.943,181.112 563.032,185.821C563.059,187.279 563.257,187.244 564.532,185.559C568.254,180.638 564.031,173.939 557.295,174.079C555.208,174.122 554.063,174.385 554.75,174.662M586.698,196.846C591.272,199.179 595.02,203.22 596.964,207.913C598.001,210.416 598.046,212.507 597.177,217.749C596.57,221.411 596.17,224.428 596.287,224.454C599.178,225.083 607.24,230.713 609.928,233.981C612.891,237.582 613.101,238.11 611.157,237.076C609.868,236.391 607.749,236.097 606.447,236.424C604.689,236.865 603.791,236.477 602.954,234.915C602.335,233.758 599.808,231.918 597.338,230.825C593.834,229.275 593.008,228.472 593.576,227.17C594.954,224.011 595.22,218.97 594.081,217.597C593.453,216.841 590.861,215.699 588.321,215.059C584.845,214.184 583.987,213.613 584.852,212.748C588.396,209.204 584.18,202.415 579.209,203.663C577.01,204.214 576.888,204.078 577.892,202.201C579.769,198.695 579.157,196.963 575.5,195.436C573.575,194.631 572,193.83 572,193.654C572,192.653 583.281,195.103 586.698,196.846M105.543,198.863C104.639,201.712 98.481,206.865 93.353,209.063C90.959,210.089 89,211.568 89,212.348C89,216.054 75.231,224.949 61.596,230.05C55.51,232.327 48.603,238.976 44.914,246.108C43.143,249.531 42.579,252.486 42.356,259.5L42.071,268.5L43.857,261.5C46.117,252.643 47.99,249.094 52.484,245.148C56.511,241.613 60.047,241.157 65.565,243.463C67.849,244.417 69.836,244.632 71.283,244.08C75.309,242.544 86.31,233.635 95.081,224.808C103.239,216.597 105.864,212.822 107.465,207L108.152,204.5L106.304,207.177C105.288,208.649 103.17,210.865 101.598,212.101L98.74,214.349L101.331,210.425C103.994,206.392 107.349,198.016 106.602,197.269C106.371,197.038 105.895,197.755 105.543,198.863M560.63,204.327C562.711,218.132 567.171,231.971 573.685,244.834L580.436,258.168L580.835,268.096C581.198,277.141 580.942,278.957 577.949,288.512C576.143,294.279 574.495,298.829 574.287,298.621C574.079,298.413 574.841,294.7 575.98,290.371C578.8,279.65 579.549,269.605 577.944,264C577.165,261.281 576.497,260.192 576.254,261.25C575.678,263.765 573.916,263.41 571.286,260.25L568.996,257.5L571.126,262.5C574.633,270.736 574.817,284.824 571.598,298.678C570.169,304.826 569,311.252 569,312.959C569,316.226 572.663,328.143 573.93,328.999C574.338,329.275 575.229,330.4 575.911,331.5L577.151,333.5L576.503,331.5C576.147,330.4 575.608,326.575 575.305,323C574.587,314.528 576.542,306.996 583.026,293.25C592.394,273.389 592.23,264.37 582.112,243.153C575.904,230.134 572.675,220.253 571.465,210.564C570.815,205.363 570.626,205.056 568.411,205.612C566.641,206.056 565.294,205.448 563.026,203.18L560.001,200.155L560.63,204.327M58.77,213.572C54.169,217.789 49.511,218.703 43.341,216.601L38.617,214.991L41.518,218.019C44.772,221.415 52.151,224 58.592,224C64.495,224 73.837,220.896 79.349,217.104C86.043,212.499 85.49,211.435 76.605,211.825C72.535,212.004 67.669,211.727 65.792,211.208C62.694,210.353 62.044,210.572 58.77,213.572M98.607,226.595L88.714,237.125L89.382,247.313C90.39,262.676 94.26,278.063 98.497,283.56C99.928,285.416 100.291,285.192 106.892,278.366C110.686,274.443 115.391,268.856 117.347,265.951C122.162,258.801 129.729,238.38 128.365,236.217C126.507,233.271 125.266,233.888 124.151,238.313C122.283,245.732 114.408,260.207 108.253,267.536C105.036,271.366 102.035,274.5 101.585,274.5C99.175,274.5 94,254.098 94,244.601C94,236.719 95.612,236.845 96.286,244.779C96.909,252.101 101.519,268 103.02,268C104.125,268 114.1,254.826 116.302,250.459C117.145,248.787 119.037,243.706 120.506,239.168C123.514,229.875 123.771,230.924 116.111,221.25C113.824,218.363 111.176,216.015 110.227,216.032C109.277,216.05 104.048,220.803 98.607,226.595M116.043,224.556L120.33,230.112L118.572,235.806C115.957,244.28 110.602,254.985 106.759,259.423L103.362,263.346L101.225,256.423C100.05,252.615 98.797,245.353 98.441,240.284L97.793,231.068L103.549,225.034C106.714,221.715 109.856,219 110.531,219C111.205,219 113.686,221.5 116.043,224.556M104.32,226.639C100.391,230.857 100.001,231.741 100.008,236.389C100.017,242.624 101.633,252.988 103.18,256.737C104.193,259.192 104.531,257.998 106.208,246.036C107.246,238.63 108.284,232.382 108.515,232.151C108.747,231.92 110.273,232.285 111.908,232.962C115.023,234.252 117,233.738 117,231.638C117,229.885 111.055,222 109.733,222C109.132,222 106.696,224.087 104.32,226.639M133.187,242.496C129.373,245.705 127.193,251.25 125.865,261.118C124.55,270.889 126.408,280.581 131.545,290.754C136.176,299.921 144.705,308.611 150.939,310.511C153.035,311.15 152.729,310.513 148.764,305.98C143.416,299.867 138.229,290.188 137.329,284.644L136.704,280.787L141.454,284.413C144.067,286.407 147.154,288.547 148.315,289.168L150.425,290.298L148.513,287.399C145.388,282.663 143.226,277.719 142.427,273.482C141.679,269.517 141.671,269.512 140.754,272.25C139.626,275.62 136.721,275.867 134.557,272.777C133.456,271.206 133.006,268.204 133.022,262.527C133.058,249.501 137.338,242.843 145.727,242.765L149.5,242.73L146.5,241.41C141.613,239.26 136.541,239.674 133.187,242.496M80.508,244.649C78.313,246.564 74.011,249.28 70.949,250.686C65.403,253.231 65.374,253.267 63.671,259.871C61.389,268.719 57.836,276.163 52.992,282.248C48.443,287.961 48.041,289.404 51.25,288.503C58.153,286.564 68.166,280.609 72.354,275.951L76.864,270.934L74.838,278.217C72.257,287.492 68.582,294 65.926,294C64.832,294 63.659,293.276 63.32,292.391C62.895,291.284 61.982,292.552 60.395,296.452C59.127,299.57 55.999,305.05 53.445,308.629C50.892,312.207 49.03,315.363 49.309,315.642C50.349,316.682 69.239,305.439 73.487,301.251C78.303,296.503 81.662,290.076 84.593,280C86.099,274.819 86.469,270.399 86.414,258.222C86.376,249.819 85.929,242.545 85.422,242.057C84.876,241.531 82.873,242.587 80.508,244.649M148.001,246.501C149.329,248.101 149.292,248.408 147.656,249.395C142.905,252.264 142.814,252.571 146.827,252.188C151.811,251.713 154.783,253.285 156.542,257.329C158.23,261.21 158.419,259.129 156.852,253.902C155.574,249.636 152.764,246.615 149.008,245.471C146.701,244.768 146.626,244.844 148.001,246.501M114,279.169C112.075,281.844 108.138,285.933 105.25,288.256C100.291,292.244 100,292.734 100,297.073C100,302.364 100.573,303.299 103.017,301.991C106.735,300.001 118.417,279.601 117.818,276.144C117.576,274.742 116.667,275.462 114,279.169M117.762,288.491C112.328,301.049 107.634,307.923 103.996,308.651L101,309.25L101,317.566C101,330.595 103.539,330.061 110.424,315.585C115.872,304.13 119.532,293.985 120.916,286.497C121.509,283.287 121.862,280.529 121.7,280.366C121.538,280.204 119.765,283.86 117.762,288.491M606.221,286.503C601.829,288.411 592.739,297.631 590.048,302.906C587.473,307.954 583.981,321.041 584.045,325.41C584.079,327.808 584.612,326.933 586.423,321.5C592.321,303.801 598.796,294.734 609.405,289.315C613.084,287.435 613.959,286.587 612.905,285.92C611.035,284.736 610.099,284.818 606.221,286.503M87.523,294.515C84.813,298.658 80.585,303.614 78.127,305.529C75.226,307.789 72.289,311.535 69.754,316.207C67.606,320.164 64.041,325.562 61.831,328.201C59.026,331.552 58.291,333 59.396,333C61.993,333 70.562,329.441 75.956,326.122C78.73,324.415 81,323.282 81,323.605C81,325.372 76.301,330.325 72.526,332.538C68.932,334.644 67.558,336.398 64.563,342.706C62.572,346.898 61.13,350.817 61.359,351.414C61.588,352.011 66.682,347.55 72.679,341.5C83.99,330.09 90.838,320.244 94.171,310.603C96.669,303.376 96.217,288.236 93.475,287.324C92.911,287.137 90.233,290.373 87.523,294.515M555.006,299.75C555.009,305.113 555.47,311.151 556.03,313.169C556.815,315.996 556.7,317.716 555.529,320.669C552.983,327.088 552.084,334.077 553.099,339.572C553.947,344.163 553.751,345.272 551.038,351.255C549.39,354.891 547.506,361.158 546.852,365.183C546.126,369.648 544.798,373.669 543.445,375.5C539.676,380.6 537.242,386.276 535.93,393.025C534.813,398.769 533.942,400.346 528.205,407C522.384,413.752 516,424.87 516,428.256C516,428.97 513.75,432.68 511,436.5C503.598,446.781 504.425,449.119 512.398,440.454C518.165,434.186 518.865,432.96 519.498,428.027C520.528,419.997 523.187,415.253 531.01,407.49C537.608,400.942 538,400.3 538.006,396.027C538.015,388.524 539.75,384.383 545.48,378.195L550.871,372.372L549.873,367.936C548.495,361.814 549.382,358.267 554.124,350.93L558.202,344.62L556.463,338.876C554.384,332.012 554.942,327.021 558.593,319.816C561.069,314.931 561.093,314.689 559.507,310.727C558.611,308.487 557.614,302.908 557.291,298.328C556.967,293.747 556.32,290 555.851,290C555.383,290 555.003,294.387 555.006,299.75M123.898,297.247C122.31,301.079 122.503,303.24 125.111,310.833C129.023,322.223 135.444,329.396 145.446,333.551L149.392,335.191L143.658,328.997C137.534,322.383 131.71,311.836 128.06,300.75C126.837,297.038 125.703,294 125.54,294C125.376,294 124.637,295.461 123.898,297.247M573.375,303.875C573.024,305.632 572.528,306.861 572.273,306.606C572.018,306.351 572.12,304.729 572.5,303C573.401,298.899 574.209,299.707 573.375,303.875M571.723,317.25C571.502,319.038 571.32,317.575 571.32,314C571.32,310.425 571.502,308.962 571.723,310.75C571.945,312.538 571.945,315.462 571.723,317.25M114.558,320.208C110.994,329.332 107.463,335 105.343,335C103.942,335 103.798,335.884 104.33,341.25C104.67,344.688 105.439,349.218 106.04,351.318C106.919,354.394 107.399,354.914 108.507,353.994C109.544,353.134 116.85,332.647 120.465,320.464C120.635,319.894 120.015,317.963 119.089,316.173L117.406,312.917L114.558,320.208M605.103,319.178C599.136,322.132 587.172,334.154 582.841,341.55C579.132,347.882 573.991,359.891 574.013,362.171C574.02,362.902 575.309,360.969 576.878,357.875C578.447,354.782 581.1,350.261 582.774,347.829C589.097,338.638 604.263,325.205 611.875,322.052C615.478,320.559 615.794,319.495 613.066,318.035C610.453,316.637 610.148,316.681 605.103,319.178M93.574,324.067C91.415,327.605 87.064,333.875 83.905,338C78.541,345.004 78.089,346.021 77.074,353.368C75.803,362.572 73.666,370.38 70.366,377.874C69.065,380.83 68,383.448 68,383.691C68,383.935 70.032,382.469 72.515,380.434C81.523,373.053 90.385,358.831 95.533,343.496C97.657,337.17 98.027,334.424 97.787,326.781L97.5,317.635L93.574,324.067M120.671,331.047C118.923,339.758 119.141,340.935 123.852,348.251C126.729,352.719 130.615,355.256 137.826,357.373L143.152,358.937L139.978,355.322C136.475,351.333 133.575,345.217 131.825,338.13C131.196,335.584 130.041,333.119 129.258,332.654C128.475,332.188 126.583,329.836 125.055,327.426L122.276,323.044L120.671,331.047M567.989,337.608C563.691,342.081 563.641,342.199 566.817,340.39C570.87,338.081 573.328,335.484 572.842,334.026C572.642,333.427 570.459,335.039 567.989,337.608M116.672,351.123C115.821,358.305 113.091,363.521 110.236,363.419C108.633,363.362 108.102,363.799 108.415,364.919C108.658,365.789 110.08,370.903 111.575,376.285C113.078,381.696 114.764,385.912 115.348,385.717C116.739,385.254 118.566,377.974 120.617,364.723C122.227,354.325 122.219,353.821 120.393,350.39C119.352,348.434 118.224,346.658 117.886,346.442C117.549,346.227 117.002,348.333 116.672,351.123M98.138,352.38C95.367,359.067 89.496,368.338 84.608,373.749C81.341,377.365 81.13,377.965 82.025,381.087C83.248,385.353 83.252,399.206 82.031,404.472C81.525,406.656 81.345,408.679 81.632,408.966C82.385,409.718 87.321,403.464 91.472,396.5C99.067,383.758 104.037,360.4 101.334,350.15L100.451,346.8L98.138,352.38M599.5,354.794C586.821,363.136 575.687,374.241 570.155,384.061C567.288,389.15 562.636,400.969 563.255,401.589C563.399,401.732 565.312,398.419 567.508,394.227C574.502,380.871 590.12,366.602 606.812,358.316C611.041,356.217 614.695,354.38 614.933,354.233C616.057,353.542 613.099,352.039 609.5,351.474C605.983,350.922 604.776,351.323 599.5,354.794M126.201,362.607L125.911,370.149L129.706,373.667C131.793,375.601 135.75,378.489 138.5,380.083C144.327,383.461 147.925,383.999 143.722,380.865C140.548,378.497 138.415,374.762 136.441,368.112C135.552,365.119 133.548,361.992 130.778,359.273L126.491,355.065L126.201,362.607M564.777,364.037L558.5,370.073L564.965,365.998C571.095,362.133 572.95,360.457 572.985,358.75C573.023,356.88 570.585,358.45 564.777,364.037M104.074,379.032C103.34,382.344 100.634,389.338 98.063,394.574L93.388,404.094L95.136,410.797C96.217,414.941 96.907,421.391 96.942,427.691C96.974,433.296 97.416,438.139 97.924,438.453C99.132,439.2 102.478,434.433 105.403,427.798C111.221,414.601 112.546,397.58 108.895,382.94C107.737,378.298 106.479,374.165 106.1,373.755C105.721,373.345 104.809,375.72 104.074,379.032M124,376.662C124,379.819 120.622,389.029 118.712,391.079C116.815,393.115 116.844,393.246 121.575,404.068C124.203,410.081 126.666,415 127.048,415C127.827,415 128.635,407.053 129.601,389.896C130.242,378.503 130.211,378.261 127.904,376.646C124.934,374.565 124,374.569 124,376.662M140,386.413C140,386.641 142.216,392.603 144.924,399.663C149.315,411.107 150.465,413.133 155.53,418.338C161.21,424.174 166.558,433.852 168.883,442.5C169.809,445.944 170.592,446.759 174.517,448.365C180.569,450.84 184.392,454.843 188.505,463.009C191.543,469.042 192.284,469.831 195.473,470.429C199.549,471.194 204.322,475.078 210.92,483C214.76,487.612 215.954,488.448 218.31,488.178C220.551,487.921 221.057,487.414 220.81,485.678C220.57,483.994 219.82,483.5 217.5,483.5C215.119,483.5 213.294,482.223 208.658,477.313C205.276,473.731 200.433,469.913 197.158,468.245C193.58,466.423 190.956,464.287 190.018,462.432C185.647,453.784 182.743,450.217 177.104,446.567C173.369,444.15 170.916,441.803 170.534,440.281C168.943,433.939 162.223,422.431 157.039,417.169C151.76,411.811 151.351,411.013 148.321,400.185C146.389,393.282 144.427,388.282 143.321,387.444C141.524,386.081 140,385.609 140,386.413M556.5,388.994C553.75,390.616 550.15,393.065 548.5,394.435C545.73,396.735 546.113,396.663 553.5,393.5C557.9,391.616 562.117,389.158 562.872,388.037C564.893,385.036 562.633,385.376 556.5,388.994M587.515,390.523C568.34,401.45 552.206,418.183 547.041,432.5C546.062,435.213 546.319,435.073 549.729,431.026C563.099,415.163 568.629,409.913 579,403.239C586.261,398.566 603.835,390 606.161,390C608.77,390 608.447,387.353 605.75,386.63C599.872,385.055 595.455,385.998 587.515,390.523M115.095,412.75C114.383,417.012 112.792,423.689 111.559,427.586C109.397,434.417 109.381,434.752 111.102,436.877C114.12,440.605 116.964,449.68 118.213,459.567C118.868,464.755 119.731,469 120.13,469C121.23,469 124.688,459.141 125.914,452.51C127.28,445.116 127.31,432.91 125.979,425.886C124.974,420.586 118.302,405 117.037,405C116.681,405 115.807,408.488 115.095,412.75M545.099,417.14C542.796,418.01 529,426.842 529,427.446C529,428.512 545.99,420.246 546.946,418.715C548.451,416.305 548.101,416.006 545.099,417.14M580.5,419.958C566.141,423.749 557.738,428.031 545.75,437.663C539.361,442.796 539,442.954 539,440.61C539,437.788 536.287,436.466 532.75,437.564C530.351,438.309 514.998,448.331 508.733,453.242C505.022,456.151 502.395,459.728 503.302,460.636C503.558,460.891 506.505,460.177 509.852,459.05C516.02,456.972 524,456.295 524,457.85C524,458.886 518.199,467 517.459,467C517.168,467 517.442,466.043 518.068,464.873C518.956,463.214 518.909,462.554 517.853,461.875C516.115,460.756 512.418,461.542 502.51,465.136C491.459,469.146 484.797,473.743 482.849,478.703L481.298,482.65L490.899,480.327C502.116,477.613 506.565,477.4 507.751,479.519C508.44,480.751 509.877,479.934 515.356,475.196C531.85,460.934 546.246,455.551 571.162,454.327C585.292,453.634 586.259,452.868 577.932,448.968L572.965,446.642L560.233,448.823C549.207,450.712 545.983,451.74 536.187,456.495C525.43,461.716 524.973,461.847 526.882,459.166C531.738,452.347 542.76,443.396 552.529,438.338C568.687,429.974 578.966,426.497 596.25,423.549C598.313,423.197 600,422.522 600,422.049C600,421.079 591.492,417.97 589.072,418.055C588.207,418.085 584.35,418.942 580.5,419.958M144.591,431C145.029,437.793 145.551,439.902 147.192,441.5L149.244,443.5L148.667,439C148.349,436.525 147.179,431.8 146.067,428.5L144.043,422.5L144.591,431M132.781,441.571C132.423,450.503 131.768,454.867 130.175,458.94C129.005,461.933 128.149,464.459 128.274,464.555C128.398,464.651 129.554,465.278 130.842,465.949C134.091,467.641 138.589,477.96 140.019,487C141.611,497.066 141.895,497.934 142.963,496C145.703,491.037 147.057,460.296 144.939,451.112C143.611,445.351 139.703,437.35 136.126,433.071L133.259,429.642L132.781,441.571M500.678,448C499.186,453.321 497.967,455.358 493.952,459.23C489.498,463.526 486.504,469.025 488.642,468.984C489.114,468.975 491.29,467.953 493.477,466.714C499.348,463.389 503.215,455.404 502.806,447.45L502.5,441.5L500.678,448M483.265,457.3C481.521,463.819 474.492,473.574 468.175,478.24C465.104,480.508 463.123,482.541 463.77,482.757C464.61,483.037 464.486,483.855 463.339,485.606C462.453,486.957 461.991,488.324 462.311,488.644C462.63,488.964 465.168,488.679 467.95,488.012C477.275,485.775 484.506,474.278 485.724,459.751C486.368,452.074 485.021,450.732 483.265,457.3M169.041,458C168.828,460.813 172.327,475.756 173.465,476.894C175.967,479.396 176.122,477.605 173.997,470.725C172.071,464.49 169.122,456.919 169.041,458M151.471,472.367C151.455,479.59 151.12,487.359 150.728,489.632C150.046,493.581 150.152,493.821 153.141,495.059C156.893,496.613 161.041,502.829 164.196,511.626C165.455,515.135 166.938,517.855 167.492,517.671C169.183,517.111 169.231,496.979 167.56,488.965C165.724,480.159 163.558,475.634 156.744,466.367L151.5,459.235L151.471,472.367M461.592,467.57C457.994,474.456 451.336,481.971 445.643,485.573C438.452,490.122 434.502,498.104 438.655,499.698C441.451,500.771 449.067,495.874 453.7,490.025C456.107,486.986 459.668,481.309 461.612,477.408C465.066,470.481 467.141,461.998 465.382,462.002C464.897,462.004 463.191,464.509 461.592,467.57M438.066,475.104C436.178,478.072 430.096,485 424.55,490.5C419.004,496 413.437,502.168 412.178,504.208C410.919,506.247 406.71,510.858 402.825,514.455L395.761,520.995L400.008,519.497C411.067,515.595 422.952,508.116 429.354,501.03C435.451,494.281 442.5,478.085 441.82,472.387C441.52,469.874 441.288,470.042 438.066,475.104M232.415,474.369C225.838,477.344 222.745,484.803 224.961,492.346C225.632,494.631 228.278,501.202 230.841,506.95L235.5,517.4L236.176,510.61C236.941,502.925 238.844,500 243.078,500C247.191,500 251.083,503.897 254.943,511.88L258.386,519L262.943,519.017C268.849,519.04 279.915,521.399 284.164,523.542C288.459,525.707 293.752,530.7 295.701,534.424C296.542,536.031 297.629,540.522 298.117,544.402C299.168,552.772 301.567,555.864 307.646,556.679C310.939,557.121 312.141,556.752 314.854,554.469L318.111,551.729L314.207,549.981C310.166,548.172 309,546.496 309,542.5C309,538.774 310.034,537.034 313.229,535.382C318.508,532.652 325,536.405 325,542.189C325,544.926 325.144,545 330.435,545C337.31,545 347.405,542.889 357.016,539.441C365.973,536.228 371.509,533.161 379.371,527.058C389.156,519.461 390.746,518.572 385.442,523.663C375.801,532.918 353.243,546.95 342.5,550.374C336.605,552.254 329.785,552.754 325.25,551.64C322.217,550.894 322,551.013 322,553.421C322,554.839 322.956,556.956 324.125,558.125C327.467,561.467 337.41,560.385 347.364,555.598C361.48,548.808 384.236,529.27 399.308,511L403.02,506.5L399.944,514.5L404.452,509.5C406.932,506.75 410.506,501.575 412.394,498C415.868,491.423 420.442,479.109 419.691,478.358C419.466,478.133 417.361,480.44 415.012,483.484C409.958,490.036 402.89,495.455 395.466,498.473C391.509,500.081 388.377,502.51 383.585,507.686C371.83,520.382 356.979,528.005 339.814,530.155C327.56,531.69 322.22,530.814 316.306,526.3L311.621,522.724L305.445,523.862C295.833,525.633 293.597,525.367 290.369,522.069C286.208,517.817 283.123,517 271.235,517C262.963,517 260.867,516.733 261.8,515.8C262.46,515.14 263,513.34 263,511.8C263,510.26 263.24,509 263.533,509C263.827,509 266.414,510.144 269.283,511.543L274.5,514.086L270.5,510.836C268.3,509.048 262.225,503.338 257,498.147C247.909,489.116 248.135,488.503 258,495.44C265.147,500.465 265.124,500.457 263.997,497.492C262.255,492.911 262.747,490.102 265.407,489.434C266.731,489.102 268.726,489.318 269.841,489.915C272.601,491.392 272.408,491.493 275.368,487.019C276.817,484.83 280.364,481.642 283.251,479.934C287.476,477.435 287.915,476.955 285.5,477.471C283.85,477.824 279.8,479.356 276.5,480.876L270.5,483.638L260,478.597C250.958,474.255 248.528,473.515 242.5,473.265C238.063,473.08 234.37,473.485 232.415,474.369M533.359,476.02C527.547,476.81 518.028,479.781 509.781,483.379C506.276,484.907 506.099,484.9 506.691,483.25C507.168,481.925 506.675,482.088 504.66,483.924C502.494,485.898 502,486.041 502,484.693C502,481.006 493.858,481.852 475.137,487.484C470.537,488.868 465.546,490 464.046,490C462.043,490 460.621,490.981 458.689,493.696C457.243,495.729 456.175,497.509 456.317,497.65C456.459,497.792 459.483,497.488 463.037,496.974C477.225,494.924 484.295,496.183 482.651,500.467C482.336,501.288 484.475,500.007 487.404,497.622C491.685,494.135 495.55,492.328 507.115,488.407L521.5,483.529L543.771,483.41C556.02,483.345 566.284,483.049 566.58,482.753C566.876,482.457 564.729,480.865 561.809,479.216C557.426,476.741 555.017,476.128 548,475.702C543.325,475.418 536.737,475.561 533.359,476.02M291.836,480.852C279.663,484.889 272.941,491.715 273.076,499.9C273.118,502.43 273.68,505.85 274.326,507.5C275.288,509.959 276.131,510.539 279,510.718C280.925,510.838 283.919,511.22 285.653,511.567C287.51,511.939 291.176,511.509 294.572,510.522L300.339,508.846L305.92,512.77C315.397,519.436 317.864,519.776 339.83,517.444C343.343,517.071 342.066,517.666 334.677,519.847C321.312,523.791 319.762,525.782 328.271,528.073C335.605,530.048 352.78,526.249 362.639,520.472C368.797,516.862 378.454,507.63 383.456,500.57C388.269,493.777 392.276,486.298 391.808,484.984C391.639,484.508 388.575,486.1 385,488.524C381.425,490.947 375.125,494.131 371,495.6C366.875,497.068 358.775,500.42 353,503.047C334.844,511.308 324.906,512.759 312.57,508.949C307.138,507.271 304.706,505.75 299.215,500.596C291.009,492.895 288.748,491.637 284.532,492.428C278.345,493.589 275.953,498.892 278.385,506.06L279.892,510.5L277.946,508.139C275.779,505.51 275.247,497.275 277.03,493.945C278.494,491.208 283.264,488.999 287.7,489.004C292.087,489.008 295.502,490.9 302.5,497.205C310.883,504.757 312.963,505.504 325.5,505.472C337.799,505.44 343.895,503.678 352.694,497.614C356.919,494.703 362.801,486.468 361.55,485.217C361.299,484.966 358.809,486.438 356.016,488.488C342.82,498.175 329.397,498.422 316.501,489.215C313.752,487.252 310.152,485.321 308.501,484.925C306.273,484.39 307.248,484.178 312.282,484.102C317.935,484.017 326,482.049 326,480.755C326,480.564 323.188,480.405 319.75,480.403C316.313,480.4 309.9,480.077 305.5,479.686C298.983,479.105 296.45,479.322 291.836,480.852M193.564,485.018C194.382,491.482 196.439,497 198.028,497C199.418,497 198.551,492.541 195.792,485.5C193.126,478.697 192.753,478.616 193.564,485.018M172.398,484.5C172.751,486.15 173.32,493.23 173.663,500.233C174.274,512.717 174.329,512.955 176.485,512.414C180.964,511.29 186.858,519.261 193.37,535.25C196.646,543.291 197.302,537.657 194.914,522C192.668,507.273 186.991,496.022 177.002,486.5C171.851,481.59 171.768,481.554 172.398,484.5M450.196,501.556C445.078,502.91 438.778,505.117 436.196,506.462L431.5,508.907L445.128,508.953C459.807,509.004 461.868,509.691 460.477,514.072C459.813,516.164 459.97,516.141 464.948,513.432C470.881,510.203 477.206,503.701 476.417,501.643C475.134,498.302 462.656,498.26 450.196,501.556M501.059,500.993C493.038,503.164 486.976,505.848 483,508.991C480.515,510.955 480.534,510.955 486.228,508.982C489.378,507.891 495.003,506.558 498.728,506.019C508.975,504.537 527.636,504.792 534,506.5C541.534,508.522 541.528,508.528 536.46,503.856L531.964,499.712L520.232,499.346C510.769,499.05 507.061,499.369 501.059,500.993M201.306,503.528C210.981,506.909 213.307,508.617 224.245,520.37C239.484,536.742 250.303,542.908 265,543.595C270.398,543.847 271.596,543.709 269.275,543.104C264.716,541.915 260.748,539.1 261.365,537.492C261.71,536.591 260.811,535.902 258.693,535.444C250.698,533.716 240.597,527.207 228.46,515.962C218.556,506.787 214.474,504.421 205.144,502.443C195.29,500.354 193.596,500.833 201.306,503.528M195.212,507.654C198.242,511.052 201.054,518.776 201.673,525.402L202.276,531.856L205.057,529.799C206.995,528.367 208.619,527.939 210.409,528.388C213.139,529.073 219.901,536.895 222.144,541.963C223.638,545.339 225,545.943 225,543.23C225,539.747 220.829,526.424 218.475,522.387C214.366,515.341 205.921,509.358 196,506.464C193.595,505.762 193.565,505.807 195.212,507.654M419.5,514.371L412.5,516.642L426,517.256C440.539,517.917 446.408,519.119 447.872,521.735C448.699,523.213 449.192,523.091 452.456,520.601C456.735,517.337 456.971,513.989 453,512.891C451.625,512.51 445.1,512.177 438.5,512.15C428.653,512.11 425.244,512.508 419.5,514.371M292.876,515.899L290.53,517.799L293.015,519.866C296.114,522.444 299.145,522.513 305.373,520.148L310.245,518.297L305.807,516.149C300.326,513.495 295.949,513.411 292.876,515.899M406.297,520.981C401.061,522.1 397.766,523.812 398.514,525.023C399.235,526.189 407.008,528.325 407.768,527.566C408.079,527.255 407.808,527 407.167,527C405.062,527 405.947,524.247 408.25,523.63C413.39,522.253 433.531,524.198 435.605,526.272C435.925,526.591 434.907,527.484 433.343,528.256C431.179,529.324 427.872,529.521 419.5,529.08C407.137,528.428 388.821,529.49 385.952,531.026C384.912,531.582 381.278,535.694 377.876,540.162C373.044,546.511 371.909,548.638 372.687,549.894C374.227,552.379 382.979,558.794 388.209,561.27C400.636,567.154 386.595,565.935 371,559.776C364.675,557.278 359.115,555.463 358.644,555.742C358.173,556.021 360.873,558.028 364.644,560.202C372.833,564.923 377.62,569.299 384.04,577.931C388.806,584.34 388.862,584.377 400.161,588.546C406.398,590.847 411.639,592.614 411.809,592.473C411.978,592.332 411.45,590.619 410.634,588.668C409.406,585.728 408.495,585.004 405.326,584.446C403.222,584.077 399.925,583.42 398,582.987C394.835,582.276 395.051,582.191 400.25,582.1C403.413,582.045 406,581.62 406,581.155C406,579.113 402.095,577.101 397.493,576.773L392.5,576.416L396.75,575.58C399.087,575.121 401,574.535 401,574.28C401,574.024 400.1,572.671 399,571.273C396.679,568.322 396.45,566.425 398.328,565.704C399.058,565.424 404.195,561.776 409.742,557.597C419.77,550.043 427.015,542.124 432.377,532.858C434.724,528.802 439.081,525.56 442.25,525.512C442.663,525.505 443.113,525.05 443.25,524.5C443.953,521.688 415.611,518.989 406.297,520.981M472.961,521.862C467.882,523.134 458.996,527.252 459.001,528.332C459.001,528.424 464.064,528.524 470.251,528.554C482.114,528.611 488.347,530.262 495.248,535.177C498.348,537.384 500.663,537.354 511.758,534.964L517.016,533.831L515.081,531.114C510.937,525.293 496.37,519.902 485.356,520.112C482.135,520.173 476.558,520.96 472.961,521.862M421.971,538.561C409.5,551.204 395.141,560.816 390.79,559.432C388.678,558.761 388.798,558.601 392.327,557.378C397.986,555.416 408.407,548.121 417.775,539.561C427.943,530.271 430.825,529.584 421.971,538.561M420,533.998C420,535.354 404.865,547.24 397.678,551.527C391.323,555.319 389.453,555.658 386.647,553.533C384.927,552.23 385.055,552.08 388.428,551.447C391.672,550.839 391.875,550.629 390.319,549.491C388.775,548.362 388.743,548.013 390.038,546.437C391.58,544.559 403.624,538.634 408.266,537.469C412.693,536.358 411.508,534.704 406.75,535.353C404.413,535.672 398.765,536.233 394.199,536.6L385.898,537.267L383.432,542.134C381.096,546.743 378.972,548.486 379.023,545.75C379.036,545.063 380.274,542.25 381.773,539.5C384.373,534.732 384.732,534.472 389.5,533.907C398.305,532.863 420,532.927 420,533.998M226,538.886C226,541.382 226.83,542.593 230.25,545.088C235.979,549.267 244.339,553.431 250.932,555.388C259.064,557.802 261.472,557.281 254,554.724C245.317,551.753 239.291,548.09 232.031,541.368L226,535.785L226,538.886M450.5,538.156C449.4,538.758 446.326,540.615 443.669,542.282L438.837,545.313L445.807,547.083C449.64,548.056 455.106,550.033 457.954,551.477L463.132,554.1L470.021,552.426C474.855,551.251 479.611,550.88 485.956,551.184C490.93,551.421 495,551.344 495,551.011C495,550.678 493.257,548.704 491.126,546.623C487.438,543.022 487.017,542.869 482.376,543.455C477.652,544.051 477.594,544.027 480.5,542.708C483.364,541.407 483.408,541.296 481.473,540.257C476.497,537.585 454.294,536.078 450.5,538.156M284.101,552.494C286.46,557.828 286.016,559.967 281.817,563.5C279.123,565.768 277.982,566.052 272.621,565.794C266.814,565.515 266.423,565.335 265,562.272C264.175,560.496 263.145,559.034 262.71,559.022C260.65,558.965 253.219,563.651 248.774,567.808C241.464,574.646 238.649,580.283 235.566,594.26L234.957,597.02L239.284,593.716C258.081,579.369 303.623,575.353 323.299,586.308C329.695,589.869 332.691,596.972 329.954,602.086C328.262,605.247 329.84,606.25 332.984,604.011C336.834,601.27 341,592.651 341,587.429C341,585.132 340.342,581.388 339.539,579.11C335.912,568.831 328.42,563.895 313.586,562.013C303.136,560.687 299.317,558.984 297.592,554.881C296.49,552.261 296.176,552.084 295.045,553.446C293.094,555.797 291.131,555.348 286.395,551.467L282.083,547.935L284.101,552.494M427.272,553.758C423.846,555.816 421.034,557.74 421.022,558.034C421.01,558.328 422.462,559.419 424.25,560.458C426.038,561.497 428.959,563.872 430.742,565.737L433.985,569.126L448.459,570.349L462.934,571.571L461.166,568.536C459.523,565.716 458.938,565.478 452.949,565.197C444.569,564.804 443.218,563.367 450.386,562.471C453.474,562.085 456,561.397 456,560.941C456,558.958 451.674,557.227 447.677,557.611C443.549,558.008 443.533,557.997 446.313,556.681C449.434,555.203 449.038,554.539 443.3,551.625C438.263,549.068 434.171,549.612 427.272,553.758M261.813,557.683C262.534,557.972 263.397,557.936 263.729,557.604C264.061,557.272 263.471,557.036 262.417,557.079C261.252,557.127 261.015,557.364 261.813,557.683M343.299,562.419C338.697,563.996 338.391,564.733 341.367,567.074C344.379,569.443 346.681,573.459 348.368,579.285L349.512,583.238L364.88,588.619C373.333,591.578 380.619,594 381.072,594C381.525,594 381.432,592.668 380.864,591.041C379.796,587.977 379.061,587.561 372.739,586.44C367.109,585.442 367.337,584.23 373.052,584.779C377.443,585.201 377.958,585.055 377.382,583.552C376.611,581.544 373.138,580.063 368.685,579.843C366.41,579.731 366.901,579.516 370.404,579.093L375.307,578.5L370.404,572.027C366.585,566.988 364.504,565.191 361,563.91C355.058,561.737 347.215,561.076 343.299,562.419M412.285,563.289C410.064,564.505 407.198,566.217 405.917,567.093L403.587,568.686L407.044,573.426C410.418,578.054 410.818,578.27 423.952,582.548C431.35,584.958 437.571,586.763 437.775,586.558C437.98,586.353 437.431,584.801 436.556,583.107C434.938,579.98 434.345,579.712 425.5,578.122L420.5,577.224L426.25,577.112C429.413,577.05 431.986,576.663 431.968,576.25C431.862,573.735 428.731,571.891 423.375,571.187L417.5,570.414L421.892,569.672L426.284,568.931L424.202,566.715C423.057,565.497 420.815,563.73 419.221,562.789C416.436,561.145 416.166,561.164 412.285,563.289M467.25,565.689C468.407,565.992 469.051,567.222 469.15,569.323L469.3,572.5L469.74,569.503C469.982,567.855 470.702,566.174 471.34,565.769C471.978,565.363 470.925,565.076 469,565.131C467.075,565.187 466.288,565.438 467.25,565.689M473,568.5C473,571.931 474.341,573.221 475.338,570.75C475.741,569.75 475.858,569.75 475.921,570.75C476.061,572.966 477.997,572.077 478.1,569.75C478.195,567.591 478.232,567.602 479,570C479.715,572.231 479.811,572.097 479.9,568.75C480.012,564.532 478.846,563.879 477.22,567.25L476.135,569.5L476.068,567.25C475.949,563.321 473,564.523 473,568.5M324.37,574.289C333.589,578.189 338.506,589.918 334.479,598.402C332.155,603.301 330.998,603.786 331.681,599.577C331.991,597.669 331.958,594.967 331.608,593.573C330.748,590.147 325.669,584.52 322.105,583.044C319.365,581.908 319.277,581.695 320.549,579.242C322.134,576.187 321.821,575.499 317.641,572.842C314.899,571.099 314.817,570.933 317,571.537C318.375,571.918 321.692,573.156 324.37,574.289M272.75,573.08C269.999,574.682 270.696,576.772 274.25,577.579C277.211,578.252 276.862,578.428 270.33,579.55C260.84,581.181 248.336,585.408 243.718,588.545C241.673,589.935 240,590.667 240,590.173C240,588.194 250.403,579.712 255.708,577.366C264.1,573.654 277.587,570.263 272.75,573.08" style="fill:white;"/>
    </g>
</svg>
